<?xml version="1.0" encoding="utf-8"?>
<!-- Generator: Adobe Illustrator 23.0.3, SVG Export Plug-In . SVG Version: 6.00 Build 0)  -->
<svg version="1.1" id="Capa_1" xmlns="http://www.w3.org/2000/svg" xmlns:xlink="http://www.w3.org/1999/xlink" x="0px" y="0px"
	 viewBox="0 0 494.3 494.3" style="enable-background:new 0 0 494.3 494.3;" xml:space="preserve">
<style type="text/css">
	.st0{fill:url(#SVGID_1_);stroke:url(#SVGID_2_);stroke-miterlimit:10;}
	.st1{fill:url(#SVGID_3_);stroke:url(#SVGID_4_);stroke-miterlimit:10;}
	.st2{fill:url(#SVGID_5_);stroke:url(#SVGID_6_);stroke-miterlimit:10;}
</style>
<g>
	
		<linearGradient id="SVGID_1_" gradientUnits="userSpaceOnUse" x1="6.475" y1="595.15" x2="475.8" y2="595.15" gradientTransform="matrix(1 0 0 1 0 -348)">
		<stop  offset="0" style="stop-color:#0000FF"/>
		<stop  offset="1" style="stop-color:#ED1C94"/>
	</linearGradient>
	
		<linearGradient id="SVGID_2_" gradientUnits="userSpaceOnUse" x1="5.975" y1="595.15" x2="476.3" y2="595.15" gradientTransform="matrix(1 0 0 1 0 -348)">
		<stop  offset="0" style="stop-color:#0000FF"/>
		<stop  offset="1" style="stop-color:#ED1C94"/>
	</linearGradient>
	<path class="st0" d="M436.1,245.9l35.6-35.6c2.7-2.7,4.1-6.2,4.1-9.9s-1.5-7.3-4.1-9.9c-2.7-2.7-6.2-4.1-9.9-4.1
		c-3.7,0-7.3,1.5-9.9,4.1l-37,36.7c-3.5-34.6-17-66.8-39.1-94l21.5-21.5h58.6c7.8,0,14.1-6.3,14.1-14.1s-6.3-14-14.1-14h-50.3V33.3
		c0-7.8-6.3-14.1-14.1-14.1c-7.8,0-14.1,6.3-14.1,14.1v58.6L356.3,113c-26.8-23.9-60.4-39.2-95.9-43.8l32.8-32.8
		c2.7-2.7,4.1-6.2,4.1-9.9s-1.5-7.3-4.1-9.9s-6.2-4.1-9.9-4.1c-3.7,0-7.3,1.5-9.9,4.1l-35.6,35.6l-35.6-35.6
		c-2.7-2.7-6.2-4.1-9.9-4.1s-7.3,1.5-9.9,4.1c-2.7,2.7-4.1,6.2-4.1,9.9s1.5,7.3,4.1,9.9l32.8,32.8c-33.4,4.2-64.6,17.7-90.7,39.3
		l-16.6-16.6V33.2c0-7.8-6.3-14.1-14.1-14.1s-14.1,6.3-14.1,14.1v50.4H29.5c-7.8,0-14.1,6.3-14.1,14.1s6.3,14,14.1,14h58.6
		l16.3,16.3c-23.4,26.4-38.1,58.6-42.9,93.4l-31-31c-2.7-2.7-6.2-4.1-9.9-4.1s-7.3,1.5-9.9,4.1c-5.5,5.5-5.5,14.3,0,19.9l35.5,35.5
		l-35.6,35.6c-5.5,5.5-5.5,14.3,0,19.9c2.7,2.7,6.2,4.1,9.9,4.1s7.3-1.5,9.9-4.1l31-31c4.4,32.3,17.6,62.5,38.3,88l-19.4,19.3H21.8
		c-7.8,0-14.1,6.3-14.1,14.1c0,7.8,6.3,14.1,14.1,14.1h50.3v50.3c0,7.8,6.3,14.1,14.1,14.1c3.7,0,7.3-1.5,9.9-4.1
		c2.7-2.7,4.1-6.2,4.1-9.9v-58.6l18.9-18.9c27.4,24.5,61.8,39.9,98.2,44.1l-35,35c-2.7,2.7-4.1,6.2-4.1,9.9c0,3.7,1.5,7.3,4.1,9.9
		c2.7,2.7,6.2,4.1,9.9,4.1s7.3-1.5,9.9-4.1l35.6-35.6l35.6,35.6c2.7,2.7,6.2,4.1,9.9,4.1c3.7,0,7.3-1.5,9.9-4.1
		c2.7-2.7,4.1-6.2,4.1-9.9s-1.5-7.3-4.1-9.9l-35-35c36.9-4.2,71.7-20,99.3-45.1l19.9,19.9v58.6c0,3.7,1.5,7.3,4.1,9.9
		c2.7,2.7,6.2,4.1,9.9,4.1c7.8,0,14.1-6.3,14.1-14.1v-50.3h50.3c7.8,0,14.1-6.3,14.1-14.1c0-3.7-1.5-7.3-4.1-9.9
		c-2.7-2.7-6.2-4.1-9.9-4.1h-58.6l-20.4-20.4c21.5-26.8,34.6-58.6,38-92.7l36.9,36.9c2.7,2.7,6.2,4.1,9.9,4.1c3.7,0,7.3-1.5,9.9-4.1
		c2.7-2.7,4.1-6.2,4.1-9.9c0-3.7-1.5-7.3-4.1-9.9L436.1,245.9z M384.4,96.3c0.8-0.8,1.2-1.8,1.2-2.9V33.2c0-3.3,2.7-6,6-6s6,2.7,6,6
		v54.4c0,1.1,0.4,2.1,1.2,2.9c0.8,0.8,1.8,1.2,2.9,1.2h54.2c3.3,0,6,2.7,6,6s-2.7,6-6,6h-60.2c-1.1,0-2.1,0.4-2.9,1.2l-35.7,35.7
		c-1.1,1.1-2.7,1.8-4.2,1.8c-1.6,0-3.1-0.6-4.2-1.8c-2.4-2.4-2.4-6.1,0-8.5L384.4,96.3z M186.3,26.3c0-1.6,0.6-3.1,1.8-4.2
		c1.1-1.1,2.7-1.8,4.2-1.8s3.1,0.6,4.2,1.8l38.4,38.4c0.8,0.8,1.8,1.2,2.9,1.2s2.1-0.4,2.9-1.2l38.4-38.4c1.1-1.1,2.7-1.8,4.2-1.8
		c1.6,0,3.1,0.6,4.2,1.8c1.1,1.1,1.8,2.7,1.8,4.2s-0.6,3.1-1.8,4.2l-42.6,42.6c-0.8,0.8-1.2,1.8-1.2,2.9v50.4c0,3.3-2.7,6-6,6
		s-6-2.7-6-6V76.1c0-1.1-0.4-2.1-1.2-2.9l-42.6-42.7C187,29.5,186.3,27.9,186.3,26.3z M89.7,103.6H29.5c-3.3,0-6-2.7-6-6s2.7-6,6-6
		h54.4c1.1,0,2.1-0.4,2.9-1.2c0.8-0.8,1.2-1.8,1.2-2.9V33.3c0-3.3,2.7-6,6-6s6,2.7,6,6v60.1c0,1.1,0.4,2.1,1.2,2.9l28,28
		c2.4,2.4,2.4,6.1,0,8.5c-1.1,1.1-2.7,1.8-4.2,1.8s-3.1-0.6-4.2-1.8l-28-28C91.8,104.1,90.8,103.6,89.7,103.6z M24.8,295.5
		c-1.1,1.1-2.7,1.8-4.2,1.8c-1.6,0-3.1-0.6-4.2-1.8c-2.4-2.4-2.4-6.1,0-8.5l38.4-38.4c0.8-0.8,1.2-1.8,1.2-2.9
		c0-1.1-0.4-2.1-1.2-2.9l-38.4-38.4c-2.4-2.4-2.4-6.1,0-8.5c1.1-1.1,2.7-1.8,4.2-1.8s3.1,0.6,4.2,1.8l42.6,42.6
		c0.8,0.8,1.8,1.2,2.9,1.2h39.6c3.3,0,6,2.7,6,6s-2.7,6-6,6H70.3c-1.1,0-2.1,0.4-2.9,1.2L24.8,295.5z M93.4,392.9
		c-0.8,0.8-1.2,1.8-1.2,2.9V456c0,1.6-0.6,3.1-1.8,4.2c-1.1,1.1-2.7,1.8-4.2,1.8c-3.3,0-6-2.7-6-6v-54.4c0-2.3-1.8-4-4-4H21.8
		c-3.3,0-6-2.7-6-6s2.7-6,6-6H82c1.1,0,2.1-0.4,2.9-1.2l30.3-30.3c1.1-1.1,2.7-1.8,4.2-1.8c1.6,0,3.1,0.6,4.2,1.8
		c2.4,2.4,2.4,6.1,0,8.5L93.4,392.9z M289.3,467.5c0,1.6-0.6,3.1-1.8,4.2c-1.1,1.1-2.7,1.8-4.2,1.8s-3.1-0.6-4.2-1.8l-38.4-38.4
		c-1.6-1.6-4.1-1.6-5.7,0l-38.4,38.4c-1.1,1.1-2.7,1.8-4.2,1.8s-3.1-0.6-4.2-1.8c-1.1-1.1-1.8-2.7-1.8-4.2c0-1.6,0.6-3.1,1.8-4.2
		l42.6-42.6c0.8-0.8,1.2-1.8,1.2-2.9v-50.4c0-3.3,2.7-6,6-6s6,2.7,6,6v50.4c0,1.1,0.4,2.1,1.2,2.9l42.6,42.6
		C288.7,464.5,289.3,466,289.3,467.5z M395.7,385.6h60.2c1.6,0,3.1,0.6,4.2,1.8c1.1,1.1,1.8,2.7,1.8,4.2c0,3.3-2.7,6-6,6h-54.4
		c-1.1,0-2.1,0.4-2.9,1.2c-0.8,0.8-1.2,1.8-1.2,2.9v54.4c0,3.3-2.7,6-6,6c-1.6,0-3.1-0.6-4.2-1.8c-1.1-1.1-1.8-2.7-1.8-4.2v-60.4
		c0-1.1-0.4-2.1-1.2-2.9l-33.4-33.4c-1.1-1.1-1.8-2.7-1.8-4.2c0-1.6,0.6-3.1,1.8-4.2c1.1-1.1,2.7-1.8,4.2-1.8c1.6,0,3.1,0.6,4.2,1.8
		l33.4,33.4C393.6,385.3,394.7,385.6,395.7,385.6z M365.2,345.4c-2.7-2.7-6.2-4.1-9.9-4.1c-3.7,0-7.3,1.5-9.9,4.1
		c-2.7,2.7-4.1,6.2-4.1,9.9c0,3.7,1.5,7.3,4.1,9.9l6.7,6.7c-27.6,25.1-62.9,40.3-100.1,43.3v-47.7c0-7.8-6.3-14.1-14.1-14.1
		s-14.1,6.3-14.1,14.1v47.7c-36.6-3-71.5-18-99-42.4l4.4-4.4c5.5-5.5,5.5-14.3,0-19.9c-2.7-2.7-6.2-4.1-9.9-4.1
		c-3.7,0-7.3,1.5-9.9,4.1l-4,4C84.6,326.7,72,296,68.6,263.1l3.1-3.1h12.9v0.1c2.3,25.5,12.2,49.1,28.8,68.6c0.8,1,2,1.4,3,1.4
		c0.9,0,1.9-0.3,2.7-1c1.7-1.5,1.9-4,0.5-5.7c-15.3-18.1-24.6-40-26.8-63.5h17c7.8,0,14.1-6.3,14.1-14.1s-6.3-14.1-14.1-14.1H71.9
		l-3.1-3.1c3.5-35.4,17.8-68.1,41.3-94.8l4.8,4.8c2.7,2.7,6.2,4.1,9.9,4.1l0,0c3.7,0,7.3-1.5,9.9-4.1c5.5-5.5,5.5-14.3,0-19.9
		l-4.5-4.5c26.4-21.7,58.3-34.7,92.4-37.7l1.3,1.3v17.5l0,0c-29.5,2.3-57,13.8-79.4,33.1c-1.7,1.5-1.9,4-0.4,5.7
		c0.8,0.9,2,1.4,3,1.4c0.9,0,1.9-0.3,2.7-1c21-18.1,46.7-28.9,74.2-31.2v23.2c0,7.8,6.3,14.1,14.1,14.1s14.1-6.3,14.1-14.1V77.7
		l1.3-1.3c36.1,3.2,70.5,18.1,97.6,42.2l-7.7,7.7c-5.5,5.5-5.5,14.3,0,19.9c2.7,2.7,6.2,4.1,9.9,4.1c3.7,0,7.3-1.5,9.9-4.1l7.2-7.2
		c21.6,26.6,34.4,58.6,37.2,92.8h-34.9c-7.8,0-14.1,6.3-14.1,14.1s6.3,14.1,14.1,14.1h8c-2.2,26.9-12.5,52.1-29.9,73
		c-1.5,1.7-1.2,4.2,0.5,5.7c0.8,0.6,1.7,1,2.6,1c1.2,0,2.3-0.5,3.1-1.5c18.7-22.3,29.6-49.2,31.8-78.1h18.8
		c-2.8,33.6-15.1,65.1-36.2,91.5L365.2,345.4z M466,295.5c-1.1,1.1-2.7,1.8-4.2,1.8c-1.6,0-3.1-0.6-4.2-1.8l-42.7-42.5
		c-0.8-0.8-1.8-1.2-2.9-1.2h-39.6c-3.3,0-6-2.7-6-6s2.7-6,6-6H412c1.1,0,2.1-0.4,2.9-1.2l42.6-42.6c1.1-1.1,2.7-1.8,4.2-1.8
		c1.6,0,3.1,0.6,4.2,1.8c1.1,1.1,1.8,2.7,1.8,4.2c0,1.6-0.6,3.1-1.8,4.2l-38.4,38.4c-1.6,1.6-1.6,4.1,0,5.7l38.4,38.4
		c1.1,1.1,1.8,2.7,1.8,4.2C467.7,293,467.1,294.5,466,295.5z"/>
	
		<linearGradient id="SVGID_3_" gradientUnits="userSpaceOnUse" x1="292.5" y1="707.8" x2="338.1" y2="707.8" gradientTransform="matrix(1 0 0 1 0 -348)">
		<stop  offset="0" style="stop-color:#0000FF"/>
		<stop  offset="1" style="stop-color:#ED1C94"/>
	</linearGradient>
	
		<linearGradient id="SVGID_4_" gradientUnits="userSpaceOnUse" x1="292" y1="707.8" x2="338.6" y2="707.8" gradientTransform="matrix(1 0 0 1 0 -348)">
		<stop  offset="0" style="stop-color:#0000FF"/>
		<stop  offset="1" style="stop-color:#ED1C94"/>
	</linearGradient>
	<path class="st1" d="M299.4,338.3c-1.6-1.6-4.1-1.6-5.7,0s-1.6,4.1,0,5.7l37.4,37.4c0.8,0.8,1.9,1.2,2.9,1.2s2.1-0.4,2.9-1.2
		c1.6-1.6,1.6-4.1,0-5.7L299.4,338.3z"/>
	
		<linearGradient id="SVGID_5_" gradientUnits="userSpaceOnUse" x1="116.8505" y1="525.5" x2="162.4505" y2="525.5" gradientTransform="matrix(1 0 0 1 0 -348)">
		<stop  offset="0" style="stop-color:#0000FF"/>
		<stop  offset="1" style="stop-color:#ED1C94"/>
	</linearGradient>
	
		<linearGradient id="SVGID_6_" gradientUnits="userSpaceOnUse" x1="116.3505" y1="525.5" x2="162.9505" y2="525.5" gradientTransform="matrix(1 0 0 1 0 -348)">
		<stop  offset="0" style="stop-color:#0000FF"/>
		<stop  offset="1" style="stop-color:#ED1C94"/>
	</linearGradient>
	<path class="st2" d="M123.7,155.9c-1.6-1.6-4.1-1.6-5.7,0s-1.6,4.1,0,5.7l37.4,37.4c0.8,0.8,1.9,1.2,2.9,1.2s2.1-0.4,2.9-1.2
		c1.6-1.6,1.6-4.1,0-5.7L123.7,155.9z"/>
</g>
</svg>
