<?xml version="1.0" encoding="utf-8"?>
<!-- Generator: Adobe Illustrator 23.0.3, SVG Export Plug-In . SVG Version: 6.00 Build 0)  -->
<svg version="1.1" id="Layer_1" xmlns="http://www.w3.org/2000/svg" xmlns:xlink="http://www.w3.org/1999/xlink" x="0px" y="0px"
	 viewBox="0 0 136 136" style="enable-background:new 0 0 136 136;" xml:space="preserve">
<style type="text/css">
	.st0{fill:url(#SVGID_1_);}
</style>
<g id="surface1">
	<linearGradient id="SVGID_1_" gradientUnits="userSpaceOnUse" x1="2.669" y1="68" x2="130.6397" y2="68">
		<stop  offset="0" style="stop-color:#0000FF"/>
		<stop  offset="1" style="stop-color:#ED1C94"/>
	</linearGradient>
	<path class="st0" d="M107.1,5.2c-1.8-1.8-4.8-1.8-6.6,0s-1.8,4.8,0,6.7l4.9,4.9l-4.8,4.8l-9.2-9.2c-1.9-1.8-4.8-1.8-6.6,0
		c-1.8,1.8-1.8,4.8,0,6.7c0,0,0,0,0,0l3.2,3.2l-8.5,8.6l-9,9l-27,27.1l-9,9.1l-9.7,9.8c-0.7,0.7-0.7,1.8,0,2.5l4.8,4.8l-6,6
		c-0.7,0.7-0.7,1.8,0,2.5l3.7,3.7L3.1,129.3c-0.6,0.8-0.5,1.9,0.3,2.5c0.6,0.5,1.4,0.5,2.1,0.1l0.1-0.1l24.1-24.1l3.7,3.7
		c0.7,0.7,1.8,0.7,2.5,0l6-6l4.8,4.8c0.7,0.7,1.8,0.7,2.5,0l63.3-63.5l3.2,3.2c1.8,1.8,4.8,1.8,6.6,0s1.8-4.8,0-6.7l-9.2-9.2
		l4.8-4.8l4.9,4.9c1.8,1.8,4.8,1.8,6.6,0c1.8-1.8,1.8-4.8,0-6.7L107.1,5.2z M34.5,107.7l-7.4-7.4l4.8-4.8l7.4,7.4L34.5,107.7z
		 M47.8,106.4l-4.8-4.7l-9.9-10l-4.8-4.8l7.2-7.3l5.8,5.8c0.8,0.6,1.9,0.5,2.5-0.3c0.5-0.6,0.5-1.5,0.1-2.1l-0.1-0.1l-5.8-5.8
		l6.5-6.5l5.8,5.8c0.8,0.6,1.9,0.5,2.5-0.3c0.5-0.6,0.5-1.5,0.1-2.1L52.9,74l-5.8-5.8l6.5-6.5l5.8,5.7c0.5,0.8,1.6,1,2.4,0.5
		c0.8-0.5,1-1.6,0.5-2.5c-0.1-0.1-0.2-0.3-0.4-0.4l-0.1-0.1l-5.8-5.8l6.5-6.6l5.8,5.8c0.8,0.6,1.9,0.4,2.5-0.4
		c0.5-0.6,0.5-1.5,0-2.1L65.1,50l6.5-6.5l5.8,5.8c0.5,0.8,1.6,1,2.4,0.5c0.8-0.5,1-1.6,0.5-2.5c-0.1-0.1-0.2-0.3-0.4-0.4l-5.9-5.9
		l6.5-6.5l5.8,5.7c0.5,0.8,1.6,1,2.4,0.5c0.8-0.5,1-1.6,0.5-2.5c-0.1-0.1-0.2-0.3-0.4-0.4l-0.1-0.1L83.1,32l7.3-7.3l19.4,19.5
		L47.8,106.4z M119.7,45.7c0.5,0.5,0.5,1.2,0,1.7c-0.5,0.5-1.2,0.5-1.7,0l-4.4-4.5l-21.9-22l-4.4-4.5c-0.5-0.5-0.5-1.2,0-1.7
		c0.5-0.5,1.2-0.5,1.7,0l20.3,20.4L119.7,45.7z M110.4,31.5l-7.4-7.4l4.8-4.8l7.4,7.4L110.4,31.5z M126.8,31.6
		c-0.5,0.5-1.2,0.5-1.7,0L102.9,9.3c-0.5-0.5-0.5-1.2,0-1.7c0.5-0.5,1.2-0.5,1.7,0L126.8,30C127.2,30.4,127.2,31.2,126.8,31.6
		L126.8,31.6z"/>
</g>
</svg>
