<?xml version="1.0" encoding="utf-8"?>
<!-- Generator: Adobe Illustrator 23.0.3, SVG Export Plug-In . SVG Version: 6.00 Build 0)  -->
<svg version="1.1" id="Oultline" xmlns="http://www.w3.org/2000/svg" xmlns:xlink="http://www.w3.org/1999/xlink" x="0px" y="0px"
	 viewBox="0 0 512 512" style="enable-background:new 0 0 512 512;" xml:space="preserve">
<style type="text/css">
	.st0{fill:url(#SVGID_1_);}
	.st1{fill:url(#SVGID_2_);}
	.st2{fill:url(#SVGID_3_);}
	.st3{fill:url(#SVGID_4_);}
	.st4{fill:url(#SVGID_5_);}
	.st5{fill:url(#SVGID_6_);}
</style>
<linearGradient id="SVGID_1_" gradientUnits="userSpaceOnUse" x1="148.2219" y1="370.89" x2="209.8219" y2="370.89" gradientTransform="matrix(1 0 0 -1 0 511.89)">
	<stop  offset="0" style="stop-color:#0000FF"/>
	<stop  offset="1" style="stop-color:#ED1C94"/>
</linearGradient>
<path class="st0" d="M209.8,141c0-4.2-3.4-7.7-7.7-7.7h-46.2c-4.3,0-7.7,3.4-7.7,7.7s3.4,7.7,7.7,7.7h46.2
	C206.4,148.7,209.8,145.3,209.8,141z"/>
<linearGradient id="SVGID_2_" gradientUnits="userSpaceOnUse" x1="271.4219" y1="370.89" x2="333.0219" y2="370.89" gradientTransform="matrix(1 0 0 -1 0 511.89)">
	<stop  offset="0" style="stop-color:#0000FF"/>
	<stop  offset="1" style="stop-color:#ED1C94"/>
</linearGradient>
<path class="st1" d="M279.1,148.7h46.2c4.3,0,7.7-3.4,7.7-7.7s-3.4-7.7-7.7-7.7h-46.2c-4.3,0-7.7,3.4-7.7,7.7
	S274.9,148.7,279.1,148.7z"/>
<linearGradient id="SVGID_3_" gradientUnits="userSpaceOnUse" x1="217.5219" y1="286.54" x2="263.7219" y2="286.54" gradientTransform="matrix(1 0 0 -1 0 511.89)">
	<stop  offset="0" style="stop-color:#0000FF"/>
	<stop  offset="1" style="stop-color:#ED1C94"/>
</linearGradient>
<path class="st2" d="M263.7,217.7c0-4.2-3.4-7.7-7.7-7.7c-4.3,0-7.7,3.4-7.7,7.7c0,4.2-3.4,7.7-7.7,7.7c-4.3,0-7.7-3.4-7.7-7.7
	c0-4.2-3.4-7.7-7.7-7.7s-7.7,3.4-7.7,7.7c0,12.7,10.3,23,23.1,23C253.4,240.7,263.7,230.4,263.7,217.7z"/>
<linearGradient id="SVGID_4_" gradientUnits="userSpaceOnUse" x1="9.4781" y1="255.84" x2="425.5219" y2="255.84" gradientTransform="matrix(1 0 0 -1 0 511.89)">
	<stop  offset="0" style="stop-color:#0000FF"/>
	<stop  offset="1" style="stop-color:#ED1C94"/>
</linearGradient>
<path class="st3" d="M356.2,363.3h-31.7l43.9-27.3c6.8-4.2,10.9-11.6,10.9-19.5v-2.2c0.1-8.4-4.5-16.1-11.9-20.1
	c-2.9-1.6-6-2.6-9.3-2.8c3.8-8.7,5.8-18.2,5.8-27.7v-8.2c29.5-4.2,49.9-31.4,45.7-60.7c-1.6-11.3-6.8-21.8-14.9-29.9v-54.5
	c0-20.8-12.1-39.6-30.9-48.5c-1.4-20.1-18.2-35.8-38.4-35.8H78.8c-4.3,0-7.7,3.4-7.7,7.7c0,19.2,8,37.5,22.2,50.5
	c-4.5,8-6.8,17-6.8,26.1v54.5C65.7,186,66,220,87.3,240.7c8.2,8,18.7,13.2,30.1,14.8v8.2c0,38.1,31.1,68.9,69.3,69v30.7h-40.3
	c-8.5-37.1-45.7-60.4-83-51.9S2.7,356.8,11.2,394c5.3,23.1,22.1,41.8,44.5,49.7v34.6c0,4.2,3.4,7.7,7.7,7.7h354.4
	c4.3,0,7.7-3.4,7.7-7.7v-46C425.5,394.2,394.4,363.4,356.2,363.3z M363.9,314.3v2.2c0,2.6-1.4,5.1-3.6,6.5l-54.4,33.8
	c-2.3,1.4-3.6,3.9-3.6,6.5v107.3h-46.2V363.3c0-4.2-3.4-7.7-7.7-7.7c-4.3,0-7.7-3.4-7.7-7.7v-49.4c0-3.5,2.4-6.6,5.8-7.4l26.8-6.7
	c0.1,0,0.1,0,0.2-0.1l23-5.7c3.4-0.9,5.8-3.9,5.8-7.4v-69c0-4.2,3.4-7.7,7.7-7.7c4.3,0,7.7,3.4,7.7,7.7v113.1c0,4.2,3.4,7.7,7.7,7.7
	c1.4,0,2.9-0.4,4.1-1.2l22.6-14.1c3.6-2.2,8.4-1.2,10.6,2.4C363.5,311.5,363.9,312.9,363.9,314.3z M289.2,87.1
	c-24.7-2.5-44.5-21.3-48-45.7h23C266.2,59.3,275.2,75.7,289.2,87.1z M279.7,41.4h23c2,17.9,11,34.3,25,45.7
	C303,84.6,283.3,65.8,279.7,41.4z M250.7,87.1c-24.7-2.5-44.5-21.3-48-45.7h23C227.7,59.3,236.7,75.7,250.7,87.1z M212.2,87.1
	c-24.7-2.5-44.5-21.3-48-45.7h23C189.2,59.3,198.1,75.7,212.2,87.1L212.2,87.1z M173.7,87.1c-24.7-2.5-44.5-21.3-48-45.7h23
	C150.6,59.3,159.6,75.7,173.7,87.1L173.7,87.1z M363.9,239.9v-75.1c20.8,4.2,34.3,24.5,30.1,45.2C390.8,225.1,379,236.8,363.9,239.9
	z M379.3,110.4v43.5c-4.9-2.3-10.1-3.9-15.4-4.6V79.7C373.6,87,379.3,98.3,379.3,110.4z M348.5,64.4v17.8
	c-16.3-7.7-27.7-23-30.3-40.8h7.1C338.1,41.4,348.5,51.7,348.5,64.4z M87.1,41.4h23c2,17.9,11,34.3,25,45.7
	C110.5,84.6,90.7,65.8,87.1,41.4z M117.4,98.7v50.5c-5.3,0.8-10.5,2.3-15.4,4.6v-43.5c0-5.9,1.3-11.6,3.9-16.9
	C109.5,95.6,113.4,97.3,117.4,98.7z M86.5,202.3c0-18.2,12.9-33.9,30.8-37.6v75.1C99.4,236.2,86.6,220.6,86.5,202.3z M132.8,263.7
	V102.3c2.6,0.3,5.1,0.4,7.7,0.4h208v161c0.1,14-5.5,27.5-15.4,37.5v-98.9c0-6.1-2.4-12-6.8-16.3c-1.5-1.5-3.2-2.8-5-3.8l7.5-3.7
	c3.8-1.9,5.4-6.5,3.5-10.3s-6.5-5.4-10.3-3.5c0,0-0.1,0-0.1,0.1l-30.8,15.3c-3.8,1.9-5.3,6.5-3.5,10.2c0.4,0.7,0.9,1.4,1.5,2
	c-1.5,3.1-2.3,6.5-2.3,9.9v63l-9.4,2.3c-6.3-20.2-27.8-31.6-48.2-25.3c-16.2,5-27.2,19.8-27.2,36.6c0,4.2,3.4,7.7,7.7,7.7
	s7.7-3.4,7.7-7.7c0-12.7,10.3-23,23.1-23c9.8,0,18.6,6.2,21.8,15.4l-19.7,4.9c-10.3,2.5-17.5,11.8-17.5,22.3v18.7h-38.5
	C156.9,317.3,132.8,293.3,132.8,263.7z M225.2,332.6V348c0,9.7,6.2,18.4,15.4,21.7V394h-15.4c-12.8,0-23.1-10.3-23.1-23v-38.3h23.1
	V332.6z M24.9,378.6c0-29.6,24.1-53.7,53.9-53.7s53.9,24,53.9,53.7s-24.1,53.7-53.9,53.7C49.1,432.3,24.9,408.3,24.9,378.6z
	 M71.1,447.2c38,4.3,72.3-22.9,76.6-60.7c0.3-2.6,0.4-5.2,0.4-7.8h39.4c3.7,17.8,19.4,30.6,37.7,30.7h15.4v61.3H71.1V447.2z
	 M410.1,470.6h-92.4v-92h38.5c29.8,0,53.9,24,53.9,53.7V470.6z"/>
<linearGradient id="SVGID_5_" gradientUnits="userSpaceOnUse" x1="163.6219" y1="324.89" x2="209.8219" y2="324.89" gradientTransform="matrix(1 0 0 -1 0 511.89)">
	<stop  offset="0" style="stop-color:#0000FF"/>
	<stop  offset="1" style="stop-color:#ED1C94"/>
</linearGradient>
<path class="st4" d="M209.8,187c0-12.7-10.3-23-23.1-23s-23.1,10.3-23.1,23s10.3,23,23.1,23S209.8,199.7,209.8,187z M179,187
	c0-4.2,3.4-7.7,7.7-7.7s7.7,3.4,7.7,7.7s-3.4,7.7-7.7,7.7S179,191.2,179,187z"/>
<linearGradient id="SVGID_6_" gradientUnits="userSpaceOnUse" x1="48.0479" y1="133.19" x2="109.6781" y2="133.19" gradientTransform="matrix(1 0 0 -1 0 511.89)">
	<stop  offset="0" style="stop-color:#0000FF"/>
	<stop  offset="1" style="stop-color:#ED1C94"/>
</linearGradient>
<path class="st5" d="M96.5,407.1c3,3,7.9,3,10.9,0s3-7.8,0-10.8l-17.7-17.6l17.7-17.6c3-3,3-7.8,0-10.8s-7.9-3-10.9,0l-17.7,17.6
	l-17.7-17.6c-3-3-7.9-3-10.9,0s-3,7.8,0,10.8l17.7,17.6l-17.7,17.6c-3,3-3,7.8,0,10.8s7.9,3,10.9,0l17.7-17.6L96.5,407.1z"/>
</svg>
